<svg width="14" height="14" viewBox="0 0 14 14"  xmlns="http://www.w3.org/2000/svg">
<path d="M13.6666 7.00016C13.6666 3.32016 10.68 0.333496 6.99998 0.333496C3.31998 0.333496 0.333313 3.32016 0.333313 7.00016C0.333313 10.6802 3.31998 13.6668 6.99998 13.6668C10.68 13.6668 13.6666 10.6802 13.6666 7.00016ZM6.99998 8.86016V7.66683H4.99998C4.63331 7.66683 4.33331 7.36683 4.33331 7.00016C4.33331 6.6335 4.63331 6.3335 4.99998 6.3335H6.99998V5.14016C6.99998 4.84016 7.35998 4.6935 7.56665 4.90683L9.42665 6.76683C9.55998 6.90016 9.55998 7.10683 9.42665 7.24016L7.56665 9.10016C7.35998 9.30683 6.99998 9.16016 6.99998 8.86016Z" />
</svg>
