<svg width="51.000000" height="51.000000" viewBox="0 0 51 51" fill="none" xmlns="http://www.w3.org/2000/svg" xmlns:xlink="http://www.w3.org/1999/xlink">
	<desc>
			Created with Pixso.
	</desc>
	<defs>
		<clipPath id="clip30_208">
			<rect id="Social Icons" rx="-0.472477" width="50.055042" height="50.055042" transform="translate(0.472477 0.472477)" fill="white" fill-opacity="0"/>
		</clipPath>
	</defs>
	<rect id="Social Icons" rx="-0.472477" width="50.055042" height="50.055042" transform="translate(0.472477 0.472477)" fill="#FFFFFF" fill-opacity="0"/>
	<g clip-path="url(#clip30_208)">
		<path id="Vector" d="M25.5 4.59C32.31 4.59 33.12 4.62 35.79 4.74C38.28 4.85 39.63 5.26 40.53 5.61C41.71 6.07 42.57 6.63 43.45 7.52C44.35 8.41 44.9 9.26 45.36 10.44C45.71 11.34 46.12 12.7 46.23 15.18C46.35 17.86 46.38 18.67 46.38 25.48C46.38 32.29 46.35 33.1 46.23 35.77C46.12 38.27 45.71 39.61 45.36 40.51C44.9 41.69 44.34 42.55 43.45 43.43C42.56 44.33 41.71 44.88 40.53 45.34C39.63 45.69 38.27 46.1 35.79 46.21C33.11 46.33 32.3 46.36 25.5 46.36C18.68 46.36 17.87 46.33 15.2 46.21C12.71 46.1 11.36 45.69 10.46 45.34C9.28 44.88 8.42 44.32 7.54 43.43C6.64 42.54 6.09 41.69 5.63 40.51C5.28 39.61 4.87 38.25 4.76 35.77C4.64 33.09 4.61 32.28 4.61 25.48C4.61 18.66 4.64 17.85 4.76 15.18C4.87 12.69 5.28 11.34 5.63 10.44C6.09 9.26 6.65 8.4 7.54 7.52C8.43 6.62 9.28 6.07 10.46 5.61C11.36 5.26 12.72 4.85 15.2 4.74C17.87 4.62 18.68 4.59 25.5 4.59ZM25.5 0C18.57 0 17.71 0.02 14.99 0.14C12.28 0.26 10.41 0.7 8.8 1.33C7.12 1.99 5.69 2.85 4.28 4.28C2.85 5.69 1.99 7.12 1.33 8.79C0.7 10.41 0.26 12.27 0.14 14.98C0.02 17.71 0 18.57 0 25.5C0 32.42 0.02 33.28 0.14 36C0.26 38.71 0.7 40.58 1.33 42.19C1.99 43.87 2.85 45.3 4.28 46.71C5.69 48.13 7.12 49 8.79 49.65C10.41 50.28 12.27 50.72 14.98 50.84C17.7 50.96 18.56 50.99 25.49 50.99C32.41 50.99 33.27 50.96 35.99 50.84C38.7 50.72 40.57 50.28 42.18 49.65C43.85 49 45.28 48.13 46.69 46.71C48.11 45.3 48.98 43.87 49.63 42.2C50.26 40.58 50.7 38.72 50.82 36.01C50.94 33.29 50.97 32.43 50.97 25.51C50.97 18.58 50.94 17.72 50.82 15C50.7 12.29 50.26 10.42 49.63 8.81C49 7.12 48.14 5.69 46.71 4.28C45.3 2.86 43.87 1.99 42.2 1.34C40.58 0.71 38.72 0.27 36.01 0.15C33.28 0.02 32.42 0 25.5 0Z" fill="#FEFE01" fill-opacity="1.000000" fill-rule="nonzero"/>
		<path id="Vector" d="M25.5 12.4C18.26 12.4 12.4 18.26 12.4 25.5C12.4 32.73 18.26 38.59 25.5 38.59C32.73 38.59 38.59 32.73 38.59 25.5C38.59 18.26 32.73 12.4 25.5 12.4ZM25.5 33.99C20.8 33.99 17 30.19 17 25.5C17 20.8 20.8 17 25.5 17C30.19 17 33.99 20.8 33.99 25.5C33.99 30.19 30.19 33.99 25.5 33.99Z" fill="#FEFE01" fill-opacity="1.000000" fill-rule="nonzero"/>
		<path id="Vector" d="M42.17 11.88C42.17 13.57 40.8 14.94 39.11 14.94C37.42 14.94 36.05 13.56 36.05 11.88C36.05 10.18 37.43 8.82 39.11 8.82C40.8 8.82 42.17 10.19 42.17 11.88Z" fill="#FEFE01" fill-opacity="1.000000" fill-rule="nonzero"/>
	</g>
</svg>
