<svg width="51.000000" height="51.000000" viewBox="0 0 51 51" fill="none" xmlns="http://www.w3.org/2000/svg" xmlns:xlink="http://www.w3.org/1999/xlink">
	<desc>
			Created with Pixso.
	</desc>
	<defs/>
	<path id="Vector" d="M51 25.5C51 39.58 39.58 51 25.5 51C11.41 51 0 39.58 0 25.5C0 11.41 11.41 0 25.5 0C39.58 0 51 11.41 51 25.5ZM26.41 18.82C23.93 19.85 18.97 21.99 11.54 25.23C10.33 25.71 9.7 26.18 9.64 26.63C9.54 27.41 10.52 27.72 11.84 28.13C12.02 28.19 12.21 28.25 12.4 28.31C13.7 28.73 15.45 29.23 16.36 29.25C17.19 29.27 18.11 28.93 19.13 28.23C26.07 23.54 29.66 21.17 29.88 21.12C30.04 21.08 30.26 21.04 30.41 21.17C30.56 21.3 30.54 21.55 30.53 21.62C30.43 22.03 26.62 25.58 24.64 27.41C24.03 27.98 23.59 28.39 23.5 28.48C23.3 28.69 23.1 28.89 22.9 29.07C21.69 30.24 20.79 31.12 22.95 32.54C23.99 33.23 24.83 33.8 25.66 34.36C26.57 34.98 27.47 35.6 28.64 36.37C28.94 36.56 29.23 36.76 29.5 36.96C30.56 37.72 31.51 38.39 32.68 38.28C33.36 38.22 34.07 37.58 34.43 35.67C35.27 31.15 36.93 21.37 37.31 17.34C37.35 16.98 37.31 16.53 37.27 16.33C37.24 16.13 37.17 15.85 36.91 15.64C36.6 15.39 36.13 15.34 35.92 15.35C34.96 15.36 33.49 15.87 26.41 18.82Z" fill="#FEFE01" fill-opacity="1.000000" fill-rule="evenodd"/>
</svg>
