<svg width="18" height="18" viewBox="0 0 18 18" fill="none" xmlns="http://www.w3.org/2000/svg">
<path d="M9.00001 2.2002C11.2 2.2002 11.5 2.2002 12.4 2.2002C13.2 2.2002 13.6 2.4002 13.9 2.5002C14.3 2.7002 14.6 2.8002 14.9 3.1002C15.2 3.4002 15.4 3.7002 15.5 4.1002C15.6 4.4002 15.7 4.8002 15.8 5.6002C15.8 6.5002 15.8 6.7002 15.8 9.0002C15.8 11.3002 15.8 11.5002 15.8 12.4002C15.8 13.2002 15.6 13.6002 15.5 13.9002C15.3 14.3002 15.2 14.6002 14.9 14.9002C14.6 15.2002 14.3 15.4002 13.9 15.5002C13.6 15.6002 13.2 15.7002 12.4 15.8002C11.5 15.8002 11.3 15.8002 9.00001 15.8002C6.70001 15.8002 6.50001 15.8002 5.60001 15.8002C4.80001 15.8002 4.40001 15.6002 4.10001 15.5002C3.70001 15.3002 3.40001 15.2002 3.10001 14.9002C2.80001 14.6002 2.60001 14.3002 2.50001 13.9002C2.40001 13.6002 2.30001 13.2002 2.20001 12.4002C2.20001 11.5002 2.20001 11.3002 2.20001 9.0002C2.20001 6.7002 2.20001 6.5002 2.20001 5.6002C2.20001 4.8002 2.40001 4.4002 2.50001 4.1002C2.70001 3.7002 2.80001 3.4002 3.10001 3.1002C3.40001 2.8002 3.70001 2.6002 4.10001 2.5002C4.40001 2.4002 4.80001 2.3002 5.60001 2.2002C6.50001 2.2002 6.80001 2.2002 9.00001 2.2002ZM9.00001 0.700195C6.70001 0.700195 6.50001 0.700195 5.60001 0.700195C4.70001 0.700195 4.10001 0.900196 3.60001 1.1002C3.10001 1.3002 2.60001 1.6002 2.10001 2.1002C1.60001 2.6002 1.40001 3.0002 1.10001 3.6002C0.900013 4.1002 0.800012 4.7002 0.700012 5.6002C0.700012 6.5002 0.700012 6.8002 0.700012 9.0002C0.700012 11.3002 0.700012 11.5002 0.700012 12.4002C0.700012 13.3002 0.900013 13.9002 1.10001 14.4002C1.30001 14.9002 1.60001 15.4002 2.10001 15.9002C2.60001 16.4002 3.00001 16.6002 3.60001 16.9002C4.10001 17.1002 4.70001 17.2002 5.60001 17.3002C6.50001 17.3002 6.80001 17.3002 9.00001 17.3002C11.2 17.3002 11.5 17.3002 12.4 17.3002C13.3 17.3002 13.9 17.1002 14.4 16.9002C14.9 16.7002 15.4 16.4002 15.9 15.9002C16.4 15.4002 16.6 15.0002 16.9 14.4002C17.1 13.9002 17.2 13.3002 17.3 12.4002C17.3 11.5002 17.3 11.2002 17.3 9.0002C17.3 6.8002 17.3 6.5002 17.3 5.6002C17.3 4.7002 17.1 4.1002 16.9 3.6002C16.7 3.1002 16.4 2.6002 15.9 2.1002C15.4 1.6002 15 1.4002 14.4 1.1002C13.9 0.900196 13.3 0.800195 12.4 0.700195C11.5 0.700195 11.3 0.700195 9.00001 0.700195Z" fill="#4E4F51"/>
<path d="M9.00001 4.7002C6.60001 4.7002 4.70001 6.6002 4.70001 9.0002C4.70001 11.4002 6.60001 13.3002 9.00001 13.3002C11.4 13.3002 13.3 11.4002 13.3 9.0002C13.3 6.6002 11.4 4.7002 9.00001 4.7002ZM9.00001 11.8002C7.50001 11.8002 6.20001 10.6002 6.20001 9.0002C6.20001 7.5002 7.40001 6.2002 9.00001 6.2002C10.5 6.2002 11.8 7.4002 11.8 9.0002C11.8 10.5002 10.5 11.8002 9.00001 11.8002Z" fill="#4E4F51"/>
<path d="M13.4 5.6002C13.9523 5.6002 14.4 5.15248 14.4 4.6002C14.4 4.04791 13.9523 3.6002 13.4 3.6002C12.8477 3.6002 12.4 4.04791 12.4 4.6002C12.4 5.15248 12.8477 5.6002 13.4 5.6002Z" fill="#4E4F51"/>
</svg>
