<svg width="14" height="14" viewBox="0 0 14 14" fill="none" xmlns="http://www.w3.org/2000/svg">
<path d="M3.15001 14H0.174997V4.6375H3.15001V14ZM1.6625 3.325C0.700001 3.325 0 2.625 0 1.6625C0 0.7 0.787501 0 1.6625 0C2.625 0 3.325 0.7 3.325 1.6625C3.325 2.625 2.625 3.325 1.6625 3.325ZM14 14H11.025V8.925C11.025 7.4375 10.4125 7 9.53749 7C8.66249 7 7.78749 7.7 7.78749 9.0125V14H4.8125V4.6375H7.6125V5.95C7.875 5.3375 8.92499 4.375 10.4125 4.375C12.075 4.375 13.825 5.3375 13.825 8.225V14H14Z" fill="#4E4F51"/>
</svg>
