<svg width="16" height="14" viewBox="0 0 16 14" fill="none" xmlns="http://www.w3.org/2000/svg">
<path d="M1.9 3.19961C1.9 2.99961 1.8 2.79961 1.7 2.69961L0.2 0.899609V0.599609H4.8L8.4 8.49961L11.6 0.599609H16V0.899609L14.7 2.09961C14.6 2.19961 14.5 2.29961 14.6 2.49961V11.4996C14.6 11.5996 14.6 11.7996 14.7 11.8996L15.9 13.0996V13.3996H9.6V13.0996L10.9 11.7996C11 11.6996 11 11.5996 11 11.3996V4.09961L7.4 13.1996H7L2.8 4.09961V10.1996C2.8 10.4996 2.9 10.6996 3 10.8996L4.7 12.8996V13.1996H0V12.8996L1.7 10.8996C1.9 10.6996 2 10.4996 1.9 10.1996V3.19961Z" fill="#4E4F51"/>
</svg>
